<svg id="Group_139" data-name="Group 139" xmlns="http://www.w3.org/2000/svg" xmlns:xlink="http://www.w3.org/1999/xlink" width="30.118" height="32" viewBox="0 0 30.118 32">
  <defs>
    <clipPath id="clip-path">
      <rect id="Rectangle_417" data-name="Rectangle 417" width="30.118" height="32" fill="none"/>
    </clipPath>
  </defs>
  <g id="Group_109" data-name="Group 109" clip-path="url(#clip-path)">
    <path id="Path_62" data-name="Path 62" d="M320.457,4.507a.454.454,0,0,0,.456-.451V.451a.456.456,0,0,0-.913,0V4.056a.454.454,0,0,0,.456.451" transform="translate(-305.398)" fill="#005eac"/>
    <path id="Path_63" data-name="Path 63" d="M146.148,66.751a.46.46,0,0,0,.645,0,.447.447,0,0,0,0-.637l-2.581-2.55a.46.46,0,0,0-.645,0,.447.447,0,0,0,0,.637Z" transform="translate(-136.887 -60.573)" fill="#005eac"/>
    <path id="Path_64" data-name="Path 64" d="M440.457,66.883a.458.458,0,0,0,.323-.132l2.581-2.55a.447.447,0,0,0,0-.637.46.46,0,0,0-.645,0l-2.581,2.55a.447.447,0,0,0,0,.637.458.458,0,0,0,.323.132" transform="translate(-419.922 -60.573)" fill="#005eac"/>
    <path id="Path_65" data-name="Path 65" d="M29.661,222.084H28.292V209.705l1.116.735a.46.46,0,0,0,.633-.125.447.447,0,0,0-.127-.625l-14.6-9.615a.461.461,0,0,0-.506,0L.2,209.69a.447.447,0,0,0-.127.625.46.46,0,0,0,.633.125l1.116-.735v12.379H.457a.451.451,0,1,0,0,.9h29.2a.451.451,0,1,0,0-.9M2.738,209.1l12.321-8.113L27.38,209.1v12.979H2.738Z" transform="translate(0 -190.985)" fill="#005eac"/>
    <path id="Path_66" data-name="Path 66" d="M157.474,301.1a2.3,2.3,0,0,0-2.833.466l-2.451-1.4a2.211,2.211,0,0,0,.034-1.314,2.243,2.243,0,0,0-1.074-1.36,2.3,2.3,0,0,0-.668-.248v-2.8a2.275,2.275,0,0,0,1.529-1.1,2.214,2.214,0,0,0,.214-1.711,2.243,2.243,0,0,0-1.074-1.36,2.291,2.291,0,0,0-1.733-.211,2.262,2.262,0,0,0-1.377,1.061,2.214,2.214,0,0,0-.214,1.712,2.243,2.243,0,0,0,1.074,1.36,2.289,2.289,0,0,0,.668.247v2.8c-.051.01-.1.022-.152.035a2.262,2.262,0,0,0-1.377,1.061,2.214,2.214,0,0,0-.214,1.712c.011.038.022.076.035.113l-2.451,1.4a2.3,2.3,0,0,0-3.693.384,2.214,2.214,0,0,0-.214,1.712,2.243,2.243,0,0,0,1.074,1.36,2.29,2.29,0,0,0,1.121.294,2.321,2.321,0,0,0,.612-.082,2.262,2.262,0,0,0,1.377-1.061,2.214,2.214,0,0,0,.214-1.712c-.011-.038-.022-.076-.035-.113l2.451-1.4a2.294,2.294,0,0,0,1.7.758,2.3,2.3,0,0,0,1.711-.759l2.452,1.4a2.244,2.244,0,0,0,1.039,2.674,2.291,2.291,0,0,0,1.121.294,2.321,2.321,0,0,0,.612-.082,2.245,2.245,0,0,0,.517-4.132m-12.58,2.627a1.357,1.357,0,0,1-.826.636,1.375,1.375,0,0,1-1.04-.127,1.346,1.346,0,0,1-.644-.816,1.329,1.329,0,0,1,.128-1.027,1.357,1.357,0,0,1,.826-.636,1.389,1.389,0,0,1,.367-.05,1.383,1.383,0,0,1,.887.325,1.34,1.34,0,0,1,.43.667c.011.038.019.076.026.114a1.327,1.327,0,0,1-.155.913m6.022-3.245a1.381,1.381,0,0,1-1.779,0,1.34,1.34,0,0,1-.43-.667c-.011-.038-.019-.076-.026-.114a1.327,1.327,0,0,1,.155-.913,1.354,1.354,0,0,1,.734-.608c.03-.01.06-.02.091-.029a1.392,1.392,0,0,1,.367-.05,1.368,1.368,0,0,1,.454.078,1.4,1.4,0,0,1,.218.1,1.346,1.346,0,0,1,.644.816,1.332,1.332,0,0,1-.128,1.027,1.35,1.35,0,0,1-.3.361m-2.08-8.905a1.357,1.357,0,0,1,.826-.636,1.391,1.391,0,0,1,.367-.05,1.374,1.374,0,0,1,.673.176,1.346,1.346,0,0,1,.644.816,1.328,1.328,0,0,1-.128,1.027,1.358,1.358,0,0,1-.734.607,1.384,1.384,0,0,1-1.131-.1,1.346,1.346,0,0,1-.644-.816,1.328,1.328,0,0,1,.128-1.027m7.879,12.786a1.375,1.375,0,0,1-1.04-.127,1.345,1.345,0,0,1-.215-2.2,1.384,1.384,0,0,1,1.565-.148,1.347,1.347,0,0,1-.31,2.479" transform="translate(-134.967 -276.915)" fill="#005eac"/>
  </g>
</svg>
