<svg id="Group_167" data-name="Group 167" xmlns="http://www.w3.org/2000/svg" xmlns:xlink="http://www.w3.org/1999/xlink" width="41.05" height="37" viewBox="0 0 41.05 37">
  <defs>
    <clipPath id="clip-path">
      <rect id="Rectangle_421" data-name="Rectangle 421" width="41.05" height="37" fill="none"/>
    </clipPath>
  </defs>
  <g id="Group_117" data-name="Group 117" transform="translate(0 0)" clip-path="url(#clip-path)">
    <path id="Path_80" data-name="Path 80" d="M339.648,7.127a3.564,3.564,0,1,1,3.564-3.564,3.568,3.568,0,0,1-3.564,3.564m0-6.031a2.467,2.467,0,1,0,2.467,2.467A2.47,2.47,0,0,0,339.648,1.1" transform="translate(-317.659)" fill="#005eac"/>
    <path id="Path_81" data-name="Path 81" d="M22.537,136.33a2.2,2.2,0,0,1-2.193-2.193v-7.149l-4.933-3.9-1.788,4.71a2.2,2.2,0,0,1-1.65,1.379L2.594,130.92a2.193,2.193,0,0,1-.8-4.312l7.8-1.449.806-6.533v-.008l.023-.169a7.671,7.671,0,0,1,.416-1.95l2.53-5.209-.96.548-3.622,3.585A2.193,2.193,0,1,1,5.7,112.305l3.827-3.787a2.195,2.195,0,0,1,.455-.346l4.886-2.791a2.182,2.182,0,0,1,1.9-.133l5.507,2.193a2.181,2.181,0,0,1,1.345,1.637l1.02,5.492,2.855,3.355a2.193,2.193,0,1,1-3.34,2.843l-3.235-3.8a2.2,2.2,0,0,1-.486-1.021l-.22-1.185-1.838,3.784,5.719,5.719a2.184,2.184,0,0,1,.633,1.748v8.123a2.2,2.2,0,0,1-2.193,2.193m-7.373-14.683a.548.548,0,0,1,.34.118l5.729,4.527a.548.548,0,0,1,.208.43v7.415a1.1,1.1,0,1,0,2.193,0v-8.15a.544.544,0,0,1,0-.057,1.093,1.093,0,0,0-.315-.89l-6-6a.548.548,0,0,1-.105-.627l2.737-5.634a.548.548,0,0,1,1.032.139l.524,2.823a1.1,1.1,0,0,0,.243.511l3.235,3.8a1.1,1.1,0,1,0,1.67-1.421l-2.95-3.466a.548.548,0,0,1-.121-.255l-1.046-5.636a1.091,1.091,0,0,0-.672-.819l-5.507-2.193a1.091,1.091,0,0,0-.949.067l-4.887,2.791a1.1,1.1,0,0,0-.227.173l-3.827,3.787a1.1,1.1,0,0,0,.766,1.876h.006a1.089,1.089,0,0,0,.771-.317l3.674-3.635a.549.549,0,0,1,.114-.086l2.562-1.464a.548.548,0,0,1,.765.716l-3.305,6.8a8.364,8.364,0,0,0-.316,1.619l-.023.167-.855,6.928a.548.548,0,0,1-.444.472l-8.195,1.522a1.1,1.1,0,1,0,.4,2.156l9.379-1.742a1.1,1.1,0,0,0,.825-.69L14.651,122a.548.548,0,0,1,.513-.354" transform="translate(0 -99.33)" fill="#005eac"/>
    <path id="Path_82" data-name="Path 82" d="M557.688,303.357a.548.548,0,0,1-.388-.936,1.646,1.646,0,0,0,0-2.326.548.548,0,0,1,.775-.775,2.744,2.744,0,0,1,0,3.877.546.546,0,0,1-.388.161" transform="translate(-526.595 -282.758)" fill="#005eac"/>
    <path id="Path_83" data-name="Path 83" d="M614.256,252.992a.548.548,0,0,1-.388-.936,6.038,6.038,0,0,0,0-8.529.548.548,0,0,1,.775-.775,7.135,7.135,0,0,1,0,10.079.547.547,0,0,1-.388.161" transform="translate(-580.062 -229.291)" fill="#005eac"/>
    <path id="Path_84" data-name="Path 84" d="M670.824,202.626a.548.548,0,0,1-.388-.936,10.428,10.428,0,0,0,0-14.731.548.548,0,1,1,.775-.775,11.526,11.526,0,0,1,0,16.282.546.546,0,0,1-.388.161" transform="translate(-633.529 -175.824)" fill="#005eac"/>
  </g>
</svg>
