<svg xmlns="http://www.w3.org/2000/svg" xmlns:xlink="http://www.w3.org/1999/xlink" width="54.619" height="37" viewBox="0 0 54.619 37">
  <defs>
    <clipPath id="clip-path">
      <rect id="Rectangle_419" data-name="Rectangle 419" width="54.619" height="37" fill="none"/>
    </clipPath>
  </defs>
  <g id="Group_165" data-name="Group 165" transform="translate(0 -2.204)">
    <g id="Group_113" data-name="Group 113" transform="translate(0 2.204)" clip-path="url(#clip-path)">
      <path id="Path_69" data-name="Path 69" d="M51.042,36.987H3.7a3.7,3.7,0,0,1-3.7-3.7V3.7A3.7,3.7,0,0,1,3.7,0H51.042a3.7,3.7,0,0,1,3.7,3.7V33.288a3.7,3.7,0,0,1-3.7,3.7M3.7,1.479A2.222,2.222,0,0,0,1.479,3.7V33.288A2.222,2.222,0,0,0,3.7,35.507H51.042a2.222,2.222,0,0,0,2.219-2.219V3.7a2.222,2.222,0,0,0-2.219-2.219Z" transform="translate(0 -0.09)" fill="#005eac"/>
      <path id="Path_70" data-name="Path 70" d="M249.612,139.233a.74.74,0,0,1-.329-.077,16.45,16.45,0,0,1-4.672-3.882A18.763,18.763,0,0,1,241.434,130a21.308,21.308,0,0,1-1.439-7.89.74.74,0,0,1,1.125-.632c2.259,1.377,5.976.794,7.957-1.245a.742.742,0,0,1,.078-.071h0a.73.73,0,0,1,.083-.056h0a.739.739,0,0,1,.361-.1h.01a.74.74,0,0,1,.548.242c1.985,2.029,5.691,2.606,7.945,1.232a.74.74,0,0,1,1.124.667,21.293,21.293,0,0,1-1.44,7.856,18.76,18.76,0,0,1-3.176,5.278,16.448,16.448,0,0,1-4.672,3.881.74.74,0,0,1-.329.077M241.5,123.282a19.416,19.416,0,0,0,1.288,6.126,17.289,17.289,0,0,0,2.9,4.854,16.13,16.13,0,0,0,3.92,3.384,16.13,16.13,0,0,0,3.919-3.383,17.288,17.288,0,0,0,2.9-4.853,19.418,19.418,0,0,0,1.289-6.127,8.7,8.7,0,0,1-8.106-1.534,8.8,8.8,0,0,1-5.555,1.952,7.679,7.679,0,0,1-2.552-.418" transform="translate(-222.242 -111.213)" fill="#005eac"/>
      <path id="Path_71" data-name="Path 71" d="M105.124,88.11H60.74a.74.74,0,0,1-.74-.74V60.74a.74.74,0,0,1,.74-.74h44.384a.74.74,0,0,1,.74.74V87.37a.74.74,0,0,1-.74.74M61.479,86.63h42.9V61.479h-42.9Z" transform="translate(-55.562 -55.651)" fill="#005eac"/>
    </g>
  </g>
</svg>
