<svg xmlns="http://www.w3.org/2000/svg" width="100.028" height="18.024" viewBox="0 0 100.028 18.024">
  <g id="icon-five-stars" transform="translate(-0.488 -0.5)" opacity="0.75">
    <path id="Path_107" data-name="Path 107" d="M10.884,6.006,9.147.439a.6.6,0,0,0-1.162,0L6.236,6.006H.61a.614.614,0,0,0-.581.439.659.659,0,0,0,.22.713L4.805,10.6,3.069,16.167a.659.659,0,0,0,.22.713.605.605,0,0,0,.722,0l4.556-3.442,4.556,3.442a.59.59,0,0,0,.361.121.6.6,0,0,0,.5-.261.651.651,0,0,0,.084-.572L12.315,10.6l4.556-3.442a.646.646,0,0,0,.22-.713.62.62,0,0,0-.581-.439Z" transform="translate(1 1)" fill="#f8e71c" stroke="#f8c065" stroke-width="1"/>
    <path id="Path_108" data-name="Path 108" d="M10.884,6.006,9.147.439a.6.6,0,0,0-1.162,0L6.236,6.006H.61a.614.614,0,0,0-.581.439.659.659,0,0,0,.22.713L4.805,10.6,3.069,16.167a.659.659,0,0,0,.22.713.605.605,0,0,0,.722,0l4.556-3.442,4.556,3.442a.59.59,0,0,0,.361.121.6.6,0,0,0,.5-.261.651.651,0,0,0,.084-.572L12.315,10.6l4.556-3.442a.646.646,0,0,0,.22-.713.62.62,0,0,0-.581-.439Z" transform="translate(21.469 1)" fill="#f8e71c" stroke="#f8c065" stroke-width="1"/>
    <path id="Path_109" data-name="Path 109" d="M10.884,6.006,9.147.439a.6.6,0,0,0-1.162,0L6.236,6.006H.61a.614.614,0,0,0-.581.439.659.659,0,0,0,.22.713L4.805,10.6,3.069,16.167a.659.659,0,0,0,.22.713.605.605,0,0,0,.722,0l4.556-3.442,4.556,3.442a.59.59,0,0,0,.361.121.6.6,0,0,0,.5-.261.651.651,0,0,0,.084-.572L12.315,10.6l4.556-3.442a.646.646,0,0,0,.22-.713.62.62,0,0,0-.581-.439Z" transform="translate(62.408 1)" fill="#f8e71c" stroke="#f8c065" stroke-width="1"/>
    <path id="Path_110" data-name="Path 110" d="M10.884,6.006,9.147.439a.6.6,0,0,0-1.162,0L6.236,6.006H.61a.614.614,0,0,0-.581.439.659.659,0,0,0,.22.713L4.805,10.6,3.069,16.167a.659.659,0,0,0,.22.713.605.605,0,0,0,.722,0l4.556-3.442,4.556,3.442a.59.59,0,0,0,.361.121.6.6,0,0,0,.5-.261.651.651,0,0,0,.084-.572L12.315,10.6l4.556-3.442a.646.646,0,0,0,.22-.713.62.62,0,0,0-.581-.439Z" transform="translate(41.939 1)" fill="#f8e71c" stroke="#f8c065" stroke-width="1"/>
    <path id="Path_111" data-name="Path 111" d="M10.884,6.006,9.147.439a.6.6,0,0,0-1.162,0L6.236,6.006H.61a.614.614,0,0,0-.581.439.659.659,0,0,0,.22.713L4.805,10.6,3.069,16.167a.659.659,0,0,0,.22.713.605.605,0,0,0,.722,0l4.556-3.442,4.556,3.442a.59.59,0,0,0,.361.121.6.6,0,0,0,.5-.261.651.651,0,0,0,.084-.572L12.315,10.6l4.556-3.442a.646.646,0,0,0,.22-.713.62.62,0,0,0-.581-.439Z" transform="translate(82.877 1)" fill="#f8e71c" stroke="#f8c065" stroke-width="1"/>
  </g>
</svg>
