<svg xmlns="http://www.w3.org/2000/svg" width="17.619" height="37" viewBox="0 0 17.619 37">
  <g id="icon-backup-battery" transform="translate(-25 -8)">
    <path id="Path_101" data-name="Path 101" d="M39.777,15.516H27.842a1.72,1.72,0,0,0-1.705,1.734V42.109a1.72,1.72,0,0,0,1.705,1.734H39.777a1.72,1.72,0,0,0,1.705-1.734V17.25A1.72,1.72,0,0,0,39.777,15.516ZM27.842,14.359A2.867,2.867,0,0,0,25,17.25V42.109A2.867,2.867,0,0,0,27.842,45H39.777a2.867,2.867,0,0,0,2.842-2.891V17.25a2.867,2.867,0,0,0-2.842-2.891Zm9.094-5.2H30.684a.573.573,0,0,0-.568.578v2.313H37.5V9.734A.573.573,0,0,0,36.935,9.156ZM30.684,8a1.72,1.72,0,0,0-1.705,1.734V13.2h9.662V9.734A1.72,1.72,0,0,0,36.935,8Z" fill="#0061aa" fill-rule="evenodd"/>
    <path id="Path_102" data-name="Path 102" d="M38.867,28.305l-1.824,9.439h4.024l-7.69,13.224,1.929-9.593H31.29Zm-5.856,11.94H36.4l-1.132,5.629,4.069-7H35.956l1.075-5.564Z" transform="translate(-2.029 -10.775)" fill="#0061aa" fill-rule="evenodd"/>
  </g>
</svg>
