<svg id="icon-verified-customer" xmlns="http://www.w3.org/2000/svg" xmlns:xlink="http://www.w3.org/1999/xlink" width="12" height="12" viewBox="0 0 12 12">
  <defs>
    <clipPath id="clip-path">
      <path id="Path_106" data-name="Path 106" d="M0,0H7.714V7.714H0Z" transform="translate(2.143 2.571)" fill="#fff"/>
    </clipPath>
  </defs>
  <circle id="Ellipse_17" data-name="Ellipse 17" cx="6" cy="6" r="6" fill="#50bda7"/>
  <g id="Group_179" data-name="Group 179" clip-path="url(#clip-path)">
    <path id="Path_105" data-name="Path 105" d="M9.409,3.056a.579.579,0,0,0-.77.112l-.033.045L5.351,8.048,3.31,6.135a.579.579,0,0,0-.775-.015l-.043.041a.579.579,0,0,0-.015.775l.041.043L5.056,9.358A.579.579,0,0,0,5.9,9.306l.035-.047,3.634-5.4A.579.579,0,0,0,9.409,3.056Z" fill="#fff"/>
  </g>
</svg>
