<svg xmlns="http://www.w3.org/2000/svg" width="37" height="37" viewBox="0 0 37 37">
  <g id="icon-adt-decal" transform="translate(-8.445 -8.445)">
    <path id="Path_99" data-name="Path 99" d="M34.057,31.062h8.18v2.557h-3v9.368h-2.2V33.619H34.057ZM23.911,39.287l1.17-2.689,1.156,2.689Zm-3.977,3.7h2.38l.537-1.223H27.31l.523,1.223h2.38L25.081,31.057,19.934,42.987Zm11.555-2.625H30.267V33.635h1.222c1.676,0,2.869,1.362,2.869,3.364s-1.193,3.363-2.869,3.363Zm2.175-6.277V31.56a4.642,4.642,0,0,0-2.175-.532H28.065v5.941l2.59,6.017h.834c2.9,0,5.07-2.539,5.07-5.987a7.081,7.081,0,0,0-.6-2.914h-2.3Z" transform="translate(-4.005 -9.946)" fill="#0061aa" fill-rule="evenodd"/>
    <path id="Path_100" data-name="Path 100" d="M19.14,8.588a.49.49,0,0,1,.346-.143h14.92a.489.489,0,0,1,.346.143L45.3,19.137a.49.49,0,0,1,.143.346V34.405a.49.49,0,0,1-.143.346L34.752,45.3a.49.49,0,0,1-.346.143H19.486a.49.49,0,0,1-.346-.143L8.588,34.752a.49.49,0,0,1-.143-.346V19.483a.49.49,0,0,1,.143-.346Zm.549.836L9.424,19.686V34.2L19.688,44.466H34.2L44.466,34.2V19.686L34.2,9.424Z" fill="#0061aa" fill-rule="evenodd"/>
  </g>
</svg>
