<svg id="icon-male-crewcut-transparent-outline-blue" xmlns="http://www.w3.org/2000/svg" width="75" height="74.949" viewBox="0 0 75 74.949">
  <path id="Path_138" data-name="Path 138" d="M38.78,53.84h-2.6a8.1,8.1,0,0,1-8.046-7.227l2.3-.9v-3.59c.353.284.689.559.988.815a6.453,6.453,0,0,0,4.12,1.537h3.641A6.42,6.42,0,0,0,43.335,43l.679-.568L44.537,42l-.011,3.676,2.305.906A8.1,8.1,0,0,1,38.78,53.84Zm-10.706-17.4-3.347-7.071-3.27-1.886-1.109-3.531a.678.678,0,0,1,.663-.541h.667v0h3.691l2.241-5.6V15.216A3.518,3.518,0,0,1,31.126,11.7h1.859a5.852,5.852,0,0,0,5.692,4.722l8.145.07,2.74,6.913h4.386a.616.616,0,0,1,.613.549l-.778,3.517-3.719,1.857-3.517,7.175c-.424,1.126-2.6,2.932-4.033,4.128l-.694.578a4.043,4.043,0,0,1-2.7.921H35.556a4.1,4.1,0,0,1-2.611-.977c-.346-.295-.738-.612-1.152-.949C30.4,39.075,28.482,37.523,28.074,36.441ZM23.4,12.875A10.553,10.553,0,0,1,33.951,2.341h9.883A3.035,3.035,0,0,1,46.867,5.37V7.011l1.663.018a3.04,3.04,0,0,1,3,3.028V21.068h-.374l-2.734-6.9L38.7,14.085a3.5,3.5,0,0,1-3.479-3.539l.013-1.182H31.126a5.863,5.863,0,0,0-5.86,5.852V17.36l-1.485,3.708H23.4Zm47.868,40.8-24.4-9.589.012-4.183A7.621,7.621,0,0,0,48.7,37.435l3.125-6.362,4.011-2,1.049-4.741.027-.218a2.958,2.958,0,0,0-2.958-3.041h-.074V10.056a5.393,5.393,0,0,0-4.7-5.327A5.384,5.384,0,0,0,43.834,0H33.951A12.9,12.9,0,0,0,21.059,12.875v8.2h-.047A3.023,3.023,0,0,0,17.99,24.09l1.5,4.967,3.427,1.977,3,6.316a8.137,8.137,0,0,0,2.174,2.787v3.981L3.743,53.637A5.886,5.886,0,0,0,0,59.094V74.907H2.344V59.094a3.537,3.537,0,0,1,2.25-3.276L25.9,47.487a10.439,10.439,0,0,0,10.28,8.694h2.6a10.44,10.44,0,0,0,10.282-8.724L70.415,55.85a3.531,3.531,0,0,1,2.241,3.282l-.037,15.81,2.344.006L75,59.138A5.892,5.892,0,0,0,71.271,53.67Z" fill="#1f99e0" fill-rule="evenodd"/>
  <path id="Path_139" data-name="Path 139" d="M12,65.363h2.346V56H12Zm44.572,0h2.346V56H56.572Z" transform="translate(2.045 9.544)" fill="#1f99e0" fill-rule="evenodd"/>
</svg>
