<svg id="icon-female-long-hair-transparent-outline-blue" xmlns="http://www.w3.org/2000/svg" width="68" height="78.004" viewBox="0 0 68 78.004">
  <path id="Path_134" data-name="Path 134" d="M40,54.851a8.466,8.466,0,0,1-14.445-5.4l3.618-1.181V44.2a6.315,6.315,0,0,0,3.025.8h3.569a6.3,6.3,0,0,0,3.063-.839v4.1l3.618,1.181A8.467,8.467,0,0,1,40,54.851Zm-15.911-19.3a20.517,20.517,0,0,1-2.112-4.435l-.148-.425L18.738,28.9a1.516,1.516,0,0,1-.713-.969L17.488,25.6a.931.931,0,0,1,.925-.824h.769a3.826,3.826,0,0,0,3.8-3.829V19.669h7.046a8.8,8.8,0,0,0,7.584-4.362,8.8,8.8,0,0,0,7.377,4.36v1.275A3.825,3.825,0,0,0,48.8,24.77h.738a.935.935,0,0,1,.927.824l-.538,2.332a1.516,1.516,0,0,1-.713.969l-3.09,1.793-.148.425a20.375,20.375,0,0,1-2.111,4.435,28.692,28.692,0,0,1-5.766,6.19,3.818,3.818,0,0,1-2.343.831H32.21a3.826,3.826,0,0,1-2.356-.831A28.692,28.692,0,0,1,24.088,35.549ZM59.532,52.467l-6.143-2.006V32.975H50.962V49.669L41.255,46.5V42.226a28.638,28.638,0,0,0,4.634-5.337,22.343,22.343,0,0,0,2.22-4.539l2.316-1.343a3.961,3.961,0,0,0,1.864-2.531l.574-2.495.032-.274a3.369,3.369,0,0,0-3.356-3.372H48.8a1.39,1.39,0,0,1-1.382-1.391v-3.71H45.2a6.392,6.392,0,0,1-6.37-6.4H36.4a6.392,6.392,0,0,1-6.37,6.4H20.558v3.71a1.391,1.391,0,0,1-1.38,1.392h-.766a3.37,3.37,0,0,0-3.36,3.372l.605,2.769a3.971,3.971,0,0,0,1.865,2.531l2.318,1.343a22.248,22.248,0,0,0,2.218,4.539,28.757,28.757,0,0,0,4.686,5.383V46.5l-9.758,3.186V32.975H14.561v17.5l-6.155,2.01C3.143,54.536,0,58.858,0,64.048V75.633H2.427V64.048c0-4.145,2.561-7.616,6.791-9.263l13.976-4.563a10.887,10.887,0,0,0,21.611,0l13.913,4.54c4.293,1.67,6.856,5.141,6.856,9.286V75.633H68V64.048C68,58.858,64.857,54.536,59.532,52.467Z" transform="translate(0 2.37)" fill="#1f99e0" fill-rule="evenodd"/>
  <path id="Path_135" data-name="Path 135" d="M8,78h2.422v-9.75H8Zm46.026,0h2.422v-9.75H54.026ZM51.6,23.157V19.5a19.38,19.38,0,1,0-38.758,0v3.656h2.422V19.5a16.957,16.957,0,1,1,33.914,0v3.656Z" transform="translate(1.75)" fill="#1f99e0" fill-rule="evenodd"/>
</svg>
