<svg xmlns="http://www.w3.org/2000/svg" width="61.058" height="37" viewBox="0 0 61.058 37">
  <path id="icon-high-decibel-alarm" d="M17.134,20.565a.965.965,0,0,1,0,1.365,23.955,23.955,0,0,0,0,33.709A.965.965,0,1,1,15.769,57a25.885,25.885,0,0,1,0-36.43A.965.965,0,0,1,17.134,20.565Zm43.342,0a.965.965,0,0,1,1.365,0,25.886,25.886,0,0,1,0,36.43.965.965,0,1,1-1.37-1.36,23.956,23.956,0,0,0,0-33.709A.965.965,0,0,1,60.476,20.565ZM24.1,27.578a.965.965,0,0,1,0,1.365,13.985,13.985,0,0,0,0,19.682.965.965,0,0,1-1.37,1.36,15.915,15.915,0,0,1,0-22.4A.965.965,0,0,1,24.1,27.578Zm29.411,0a.965.965,0,0,1,1.365,0,15.915,15.915,0,0,1,0,22.4.965.965,0,0,1-1.37-1.36,13.985,13.985,0,0,0,0-19.682A.965.965,0,0,1,53.51,27.578ZM31.066,34.592a.965.965,0,0,1,0,1.365,4.015,4.015,0,0,0,0,5.653A.965.965,0,1,1,29.7,42.972a5.945,5.945,0,0,1,0-8.376A.965.965,0,0,1,31.066,34.592Zm15.479,0a.965.965,0,0,1,1.365,0,5.948,5.948,0,0,1,0,8.374.965.965,0,1,1-1.37-1.36,4.018,4.018,0,0,0,0-5.653A.965.965,0,0,1,46.545,34.593Zm-4.358,4.24a3.163,3.163,0,1,1-3.163-3.185A3.175,3.175,0,0,1,42.187,38.833Z" transform="translate(-8.276 -20.285)" fill="#0061aa" fill-rule="evenodd"/>
</svg>
