<svg id="icon-male-buzzcut-transparent-outline-blue" xmlns="http://www.w3.org/2000/svg" width="77.559" height="77.559" viewBox="0 0 77.559 77.559">
  <path id="Path_112" data-name="Path 112" d="M29.033,37.71l-3.46-7.316L22.19,28.444l-1.146-3.655a.7.7,0,0,1,.687-.56h.688v0h3.741l2.889-5.739v-2.74a3.639,3.639,0,0,1,3.636-3.634H44.922a3.614,3.614,0,0,1,3.52,2.723v3.672l2.891,5.717H55.79a.635.635,0,0,1,.457.193.642.642,0,0,1,.177.376l-.8,3.638-3.847,1.923-3.638,7.425c-.439,1.165-2.685,3.035-4.17,4.272l-.716.6a4.174,4.174,0,0,1-2.795.953H36.769a4.243,4.243,0,0,1-2.7-1.011c-.359-.305-.765-.636-1.191-.982C31.433,40.437,29.456,38.828,29.033,37.71ZM24.2,16.957a14.544,14.544,0,0,1,29.088,0V21.8h-.467L50.866,17.93V14.692l-.029-.264A6.023,6.023,0,0,0,44.922,9.69H32.686a6.066,6.066,0,0,0-6.06,6.056V17.91L24.668,21.8H24.2ZM48.43,48.2A8.378,8.378,0,0,1,40.1,55.715H37.419a8.376,8.376,0,0,1-8.32-7.479l2.376-.929V43.592c.364.3.714.58,1.02.843a6.677,6.677,0,0,0,4.261,1.59h3.766A6.631,6.631,0,0,0,44.814,44.5l.7-.586.542-.453-.011,3.8ZM2.424,61.153a3.658,3.658,0,0,1,2.328-3.39L26.787,49.14a10.8,10.8,0,0,0,10.631,9H40.1a10.8,10.8,0,0,0,10.632-9.028L72.819,57.8a3.656,3.656,0,0,1,2.316,3.4L75.1,77.554l2.424,0L77.559,61.2A6.091,6.091,0,0,0,73.7,55.54L48.476,45.617l.011-4.329a7.866,7.866,0,0,0,1.871-2.55l3.231-6.584,4.149-2.074,1.083-4.905.029-.228A3.06,3.06,0,0,0,55.79,21.8h-.076V16.957a16.968,16.968,0,0,0-33.936,0v4.85h-.047a3.127,3.127,0,0,0-3.126,3.123l1.555,5.14,3.545,2.046,3.1,6.537a8.415,8.415,0,0,0,2.248,2.883v4.119L3.872,55.505A6.1,6.1,0,0,0,0,61.153V77.516H2.424Z" fill="#1f99e0" fill-rule="evenodd"/>
  <path id="Path_113" data-name="Path 113" d="M11,64.583h2.4V55H11Zm45.521,0h2.4V55h-2.4Z" transform="translate(3.171 12.916)" fill="#1f99e0" fill-rule="evenodd"/>
</svg>
