<svg xmlns="http://www.w3.org/2000/svg" width="26.719" height="19.944" viewBox="0 0 26.719 19.944">
  <g id="icon-quote-left-blue-transparent" transform="translate(-0.281 -0.056)">
    <path id="Path_114" data-name="Path 114" d="M0,0H26.719V17.813H0Z" transform="translate(27 20) rotate(180)" fill="none" fill-rule="evenodd"/>
    <path id="Path_115" data-name="Path 115" d="M20.967,10.729A5.756,5.756,0,0,1,17.279,8.89a5.226,5.226,0,0,1-1.458-3.656,5.2,5.2,0,0,1,1.436-3.721A4.684,4.684,0,0,1,20.8,0a5.406,5.406,0,0,1,4.159,1.968,6.923,6.923,0,0,1,1.758,4.78q0,8.436-9.3,13.195l-1.672-3.115Q20.967,14.233,20.967,10.729Zm-15.693,0A5.794,5.794,0,0,1,1.544,8.89,5.226,5.226,0,0,1,.086,5.235,5.2,5.2,0,0,1,1.522,1.514,4.732,4.732,0,0,1,5.1,0,5.343,5.343,0,0,1,9.24,1.968a6.974,6.974,0,0,1,1.737,4.78q0,8.436-9.3,13.195L0,16.829Q5.274,14.233,5.274,10.729Z" transform="translate(27 20) rotate(180)" fill="rgba(31,153,224,0.25)"/>
  </g>
</svg>
