<svg xmlns="http://www.w3.org/2000/svg" width="19" height="26.917" viewBox="0 0 19 26.917">
  <g id="icon-nest-wired-cam-dark-outline-blue" transform="translate(-8.328 -3.328)">
    <path id="Path_97" data-name="Path 97" d="M22.95,14.809a3.141,3.141,0,1,1-3.141-3.141A3.142,3.142,0,0,1,22.95,14.809Zm0,0" transform="translate(-1.98 -1.889)" fill="#0061aa"/>
    <path id="Path_98" data-name="Path 98" d="M22.984,20.689a9.549,9.549,0,0,0,4.344-7.938,9.436,9.436,0,0,0-9.635-9.42,9.6,9.6,0,0,0-9.362,9.688,9.368,9.368,0,0,0,4.344,7.537,8.239,8.239,0,0,1,3.8,6.995H13.759a2.711,2.711,0,0,0-2.712,2.693H24.613A2.711,2.711,0,0,0,21.9,27.552H19.188A7.849,7.849,0,0,1,22.984,20.689ZM17.83,19.478a6.727,6.727,0,1,1,0-13.454,6.727,6.727,0,1,1,0,13.454Zm0,0" transform="translate(0 0)" fill="#0061aa"/>
  </g>
</svg>
