<svg xmlns="http://www.w3.org/2000/svg" width="23" height="25.359" viewBox="0 0 23 25.359">
  <path id="icon-nest-floodlight-dark-outline-blue" d="M18.4,10.835l-3.019-3A7.065,7.065,0,0,0,13.11,6.311a6.8,6.8,0,0,0-2.674-.548,6.649,6.649,0,0,0-3.465.951A6.638,6.638,0,0,0,4.6,8.962,6.638,6.638,0,0,1,6.971,6.714a6.649,6.649,0,0,1,3.465-.951,6.8,6.8,0,0,1,2.674.548,7.065,7.065,0,0,1,2.271,1.527ZM0,20.748V0H2.3A2.215,2.215,0,0,1,3.925.677,2.225,2.225,0,0,1,4.6,2.305v1.96A6.635,6.635,0,0,1,7.044,1.988a6.822,6.822,0,0,1,3.335-.836H16.1a2.215,2.215,0,0,1,1.625.677A2.225,2.225,0,0,1,18.4,3.458v7.377L19.435,11.9a2.371,2.371,0,0,1,0,3.285l-6.612,6.6a2.357,2.357,0,0,1-3.277,0L5.491,17.722q-.259-.259-.475-.519a5.623,5.623,0,0,1-.416-.576v1.815a2.225,2.225,0,0,1-.675,1.629,2.215,2.215,0,0,1-1.625.677ZM10.379,3.458a4.357,4.357,0,0,0-3.033,1.2,4.673,4.673,0,0,0-1.539,2.9A8.09,8.09,0,0,1,7.935,6.268a6.423,6.423,0,0,1,2.5-.5,6.8,6.8,0,0,1,2.674.548,7.065,7.065,0,0,1,2.271,1.527l.719.692V3.458ZM5.75,12.766a4.618,4.618,0,0,0,.359,1.787A4.7,4.7,0,0,0,7.13,16.08l4.054,4.092,6.641-6.628L13.771,9.452a4.755,4.755,0,0,0-3.335-1.383,4.467,4.467,0,0,0-3.32,1.4A4.566,4.566,0,0,0,5.75,12.766ZM23,18.443H19.55V16.138H23Zm-3.22,5.3-2.415-2.421,1.61-1.614,2.415,2.421ZM13.8,25.359V21.9h2.3v3.458Z" fill="#0061aa"/>
</svg>
