<svg xmlns="http://www.w3.org/2000/svg" width="19" height="36" viewBox="0 0 19 36">
  <g id="icon-nest-doorbell-dark-outline-blue" transform="translate(-11.668 -3.332)">
    <path id="Path_95" data-name="Path 95" d="M21.168,3.332a9.17,9.17,0,0,0-9.5,9v18a9.17,9.17,0,0,0,9.5,9,9.17,9.17,0,0,0,9.5-9v-18A9.17,9.17,0,0,0,21.168,3.332Zm5.7,27a5.709,5.709,0,0,1-11.4,0v-18a5.571,5.571,0,0,1,5.7-5.4,5.571,5.571,0,0,1,5.7,5.4Zm0,0" transform="translate(0 0)" fill="#0061aa"/>
    <path id="Path_96" data-name="Path 96" d="M20,25.108a3.588,3.588,0,0,0-3.332,3.78A3.586,3.586,0,0,0,20,32.664a3.586,3.586,0,0,0,3.332-3.776A3.588,3.588,0,0,0,20,25.108Zm0,5.666A1.9,1.9,0,0,1,20,27a1.691,1.691,0,0,1,1.668,1.89A1.8,1.8,0,0,1,20,30.774Zm3.332-17A3.577,3.577,0,0,1,20,17.556a3.577,3.577,0,0,1-3.332-3.78A3.575,3.575,0,0,1,20,10,3.575,3.575,0,0,1,23.332,13.776Zm0,0" transform="translate(1.168)" fill="#0061aa"/>
  </g>
</svg>
