<svg xmlns="http://www.w3.org/2000/svg" width="23" height="19.369" viewBox="0 0 23 19.369">
  <path id="icon-nest-battery-cam-dark-outline-blue" d="M23.034,7.085,17.8,2.695C12.97-1.358,7.568,1.834,5.825,4.7A2.487,2.487,0,0,0,3.389,2.67H.917v9.978H3.389a2.434,2.434,0,0,0,1.78-.773,8.045,8.045,0,0,0,2.349,3.293l5.229,4.39a2.473,2.473,0,0,0,3.486-.324L23.343,10.6A2.52,2.52,0,0,0,23.034,7.085Zm-8.7,10.551L9.1,13.246a5.65,5.65,0,0,1-.717-7.907,5.526,5.526,0,0,1,7.838-.723l5.229,4.39Z" transform="translate(-0.917 -0.776)" fill="#0061aa"/>
</svg>
