<svg xmlns="http://www.w3.org/2000/svg" width="15" height="16" viewBox="0 0 15 16">
  <path id="Phone_Icon" data-name="Phone Icon" d="M514.459,657.016l-3.566-1.842a1.01,1.01,0,0,0-1.356.423l-.785,1.574a12.223,12.223,0,0,1-4.771-5.372l1.645-.559a.994.994,0,0,0,.6-1.279l-1.387-3.74a1.008,1.008,0,0,0-1.291-.591l-2.469.839c-.026.008-.052.017-.078.026l-.056.019-.019.01-.036.017a1,1,0,0,0-.218.13l-.036.028c-.013.011-.027.021-.039.033A1.776,1.776,0,0,0,500,648.22a14.909,14.909,0,0,0,11.81,13.309,1.8,1.8,0,0,0,1.587-.407.991.991,0,0,0,.266-.317l1.219-2.445A.992.992,0,0,0,514.459,657.016Z" transform="translate(-500 -645.568)" fill="#47494b"/>
</svg>
