<svg xmlns="http://www.w3.org/2000/svg" width="18.73" height="19" viewBox="0 0 18.73 19">
  <path id="Path_94" data-name="Path 94" d="M11.458,14.26l1.98-1.824a.648.648,0,0,1,.541-.276l.354.127,4.625,2.376a.687.687,0,0,1,.375.636,4.687,4.687,0,0,1-1.312,3.075,4.6,4.6,0,0,1-3.438,1.293,10.534,10.534,0,0,1-4.635-1.23,17.331,17.331,0,0,1-4.677-3.457A19.013,19.013,0,0,1,2.521,11.4,14.786,14.786,0,0,1,.927,7.728,8.439,8.439,0,0,1,.667,4.42,4.3,4.3,0,0,1,1.833,1.9,4.855,4.855,0,0,1,4.958.667a.657.657,0,0,1,.605.382L8.1,5.756a.874.874,0,0,1,.1.382.773.773,0,0,1-.25.551L5.979,8.683a.657.657,0,0,0-.083.848,13.707,13.707,0,0,0,2.083,2.693,14.356,14.356,0,0,0,2.646,2.142A.614.614,0,0,0,11.458,14.26Z" transform="translate(-0.603 -0.667)" fill="#fff"/>
</svg>
