<svg id="Group_137" data-name="Group 137" xmlns="http://www.w3.org/2000/svg" xmlns:xlink="http://www.w3.org/1999/xlink" width="32" height="32" viewBox="0 0 32 32">
  <defs>
    <clipPath id="clip-path">
      <rect id="Rectangle_416" data-name="Rectangle 416" width="32" height="32" fill="none"/>
    </clipPath>
  </defs>
  <g id="Group_107" data-name="Group 107" clip-path="url(#clip-path)">
    <path id="Path_57" data-name="Path 57" d="M31.838,9.211,22.789.162A.552.552,0,0,0,22.4,0H9.6a.552.552,0,0,0-.39.162L.162,9.211A.552.552,0,0,0,0,9.6V22.4a.552.552,0,0,0,.162.39l9.049,9.049A.552.552,0,0,0,9.6,32H22.4a.552.552,0,0,0,.39-.162l9.049-9.049A.552.552,0,0,0,32,22.4V9.6a.552.552,0,0,0-.162-.39M30.9,22.17,22.17,30.9H9.83L1.1,22.17V9.83L9.83,1.1H22.17L30.9,9.83Z" transform="translate(0 0)" fill="#005eac"/>
    <path id="Path_58" data-name="Path 58" d="M422.914,174.983h1.241v1.241a.414.414,0,0,0,.828,0v-1.241h1.241a.414.414,0,1,0,0-.828h-1.241v-1.241a.414.414,0,0,0-.828,0v1.241h-1.241a.414.414,0,1,0,0,.828" transform="translate(-399.19 -162.983)" fill="#005eac"/>
    <path id="Path_59" data-name="Path 59" d="M120.165,197.6a.552.552,0,0,0-.5-.075l-1.793.6a.552.552,0,1,0,.35,1.046l1.066-.357v8.337a.552.552,0,1,0,1.1,0v-9.1a.552.552,0,0,0-.229-.448" transform="translate(-111.015 -186.603)" fill="#005eac"/>
    <path id="Path_60" data-name="Path 60" d="M189.217,198.015c0-.008,0-.015,0-.023s0-.017,0-.025,0-.02,0-.029l0-.012a.551.551,0,0,0-.029-.09l-.009-.019c0-.01-.009-.019-.014-.029a.547.547,0,0,0-.052-.078l-.008-.01-.02-.022-.017-.019-.017-.016-.024-.021,0,0-.014-.01-.027-.019-.02-.012-.027-.015-.023-.011-.026-.012-.024-.009-.026-.009-.026-.007-.026-.006-.029,0-.025,0-.031,0h-.024l-.03,0-.025,0-.021,0-.033.005-.006,0a.532.532,0,0,0-.221.105l-.01.008-.023.02-.018.016-.016.018-.021.023,0,0-4.782,6a.552.552,0,0,0,.431.9h4.23v2.548a.552.552,0,1,0,1.1,0v-9.1s0,0,0,0,0-.022,0-.033M185.03,203.5l3.085-3.873V203.5Z" transform="translate(-173.219 -186.603)" fill="#005eac"/>
    <path id="Path_61" data-name="Path 61" d="M320.552,200a.552.552,0,0,0-.552.552v4.225s0,0,0,.006,0,.024,0,.035,0,.014,0,.021,0,.019,0,.028,0,.019.005.028l.005.02c0,.012.006.023.01.034v.005l0,.012c0,.011.009.022.013.033l.01.02.014.027.014.024.014.021.019.025.013.016.022.024.014.015.024.021.017.014.024.018.021.014.023.014.024.013.022.011.026.011.024.009.026.008.028.007.023.005.034.005.019,0,.039,0h.016l.038,0h.019l.03,0,.027,0,.021-.005.034-.01.005,0a4.462,4.462,0,0,1,1.591-.256,1.9,1.9,0,0,1,1.362.575,1.985,1.985,0,0,1,.569,1.4,1.956,1.956,0,0,1-1.931,1.975,1.9,1.9,0,0,1-1.362-.575.552.552,0,0,0-.787.773,2.993,2.993,0,0,0,2.149.905,3.088,3.088,0,0,0,2.15-5.251h0a2.993,2.993,0,0,0-2.149-.905,5.873,5.873,0,0,0-1.218.112V201.1h3.084a.552.552,0,1,0,0-1.1Z" transform="translate(-302.345 -188.966)" fill="#005eac"/>
  </g>
</svg>
