<svg id="Group_166" data-name="Group 166" xmlns="http://www.w3.org/2000/svg" xmlns:xlink="http://www.w3.org/1999/xlink" width="47" height="37" viewBox="0 0 47 37">
  <defs>
    <clipPath id="clip-path">
      <rect id="Rectangle_420" data-name="Rectangle 420" width="47" height="37" fill="none"/>
    </clipPath>
  </defs>
  <g id="Group_115" data-name="Group 115" clip-path="url(#clip-path)">
    <path id="Path_72" data-name="Path 72" d="M280.6,17.9a.6.6,0,0,1-.539-.33.594.594,0,0,1,.27-.8l4.282-2.12-2.141-4.24a.594.594,0,0,1,.27-.8L287.1,7.456,284.85.785a.6.6,0,0,1,.381-.755.6.6,0,0,1,.762.377L288.4,7.569a.6.6,0,0,1-.3.723l-4.282,2.12,2.141,4.24a.594.594,0,0,1-.27.8L280.87,17.84a.6.6,0,0,1-.269.063" transform="translate(-263.124 0)" fill="#005eac"/>
    <path id="Path_73" data-name="Path 73" d="M55.063,145.067a.6.6,0,0,1-.426-.175.593.593,0,0,1,0-.844l4.3-4.259-6.62-4.37a.593.593,0,0,1-.2-.763l2.075-4.109-8.913-2.207a.6.6,0,0,1-.382-.292.592.592,0,0,1-.043-.476l2.029-6.029-6.088,2.01a.6.6,0,0,1-.762-.377.6.6,0,0,1,.381-.755l7.232-2.387a.607.607,0,0,1,.617.144.593.593,0,0,1,.146.611l-2.2,6.55,9.011,2.231a.6.6,0,0,1,.4.33.591.591,0,0,1-.008.516l-2.173,4.3,6.789,4.482a.593.593,0,0,1,.092.919l-4.821,4.774a.6.6,0,0,1-.426.175" transform="translate(-37.587 -112.842)" fill="#005eac"/>
    <path id="Path_74" data-name="Path 74" d="M69.529,32.229H40.6a.6.6,0,0,1-.6-.6V.6a.6.6,0,0,1,.6-.6H69.529a.6.6,0,0,1,.6.6V31.632a.6.6,0,0,1-.6.6M41.205,31.035H68.927V1.2H41.205Z" transform="translate(-37.589 -0.003)" fill="#005eac"/>
    <path id="Path_75" data-name="Path 75" d="M69.529,32.229H40.6a.6.6,0,0,1-.6-.6V.6a.6.6,0,0,1,.6-.6H69.529a.6.6,0,0,1,.6.6V31.632a.6.6,0,0,1-.6.6M41.205,31.035H68.927V1.2H41.205Z" transform="translate(-37.589 -0.003)" fill="#005eac"/>
    <path id="Path_76" data-name="Path 76" d="M33.145,525.971H1.808A1.8,1.8,0,0,1,0,524.18v-2.387A1.8,1.8,0,0,1,1.808,520H33.145a1.8,1.8,0,0,1,1.808,1.79v2.387a1.8,1.8,0,0,1-1.808,1.79M1.808,521.2a.6.6,0,0,0-.6.6v2.387a.6.6,0,0,0,.6.6H33.145a.6.6,0,0,0,.6-.6v-2.387a.6.6,0,0,0-.6-.6Z" transform="translate(0 -488.971)" fill="#005eac"/>
    <path id="Path_77" data-name="Path 77" d="M588.887,256.288a.6.6,0,0,1-.426-.175.593.593,0,0,1,0-.844,1.78,1.78,0,0,0,0-2.532.593.593,0,0,1,0-.844.607.607,0,0,1,.852,0,2.967,2.967,0,0,1,0,4.22.6.6,0,0,1-.426.175" transform="translate(-552.832 -236.696)" fill="#005eac"/>
    <path id="Path_78" data-name="Path 78" d="M645.456,206.471a.6.6,0,0,1-.426-.175.593.593,0,0,1,0-.844,6.527,6.527,0,0,0,0-9.284.593.593,0,0,1,0-.844.607.607,0,0,1,.852,0,7.713,7.713,0,0,1,0,10.972.6.6,0,0,1-.426.175" transform="translate(-605.991 -183.504)" fill="#005eac"/>
    <path id="Path_79" data-name="Path 79" d="M702.024,156.654a.6.6,0,0,1-.426-.175.593.593,0,0,1,0-.844,11.273,11.273,0,0,0,0-16.035.593.593,0,0,1,0-.844.607.607,0,0,1,.852,0,12.46,12.46,0,0,1,0,17.723.6.6,0,0,1-.426.175" transform="translate(-659.151 -130.311)" fill="#005eac"/>
  </g>
</svg>
