<svg id="Group_141" data-name="Group 141" xmlns="http://www.w3.org/2000/svg" xmlns:xlink="http://www.w3.org/1999/xlink" width="22.4" height="32" viewBox="0 0 22.4 32">
  <defs>
    <clipPath id="clip-path">
      <rect id="Rectangle_418" data-name="Rectangle 418" width="22.4" height="32" fill="none"/>
    </clipPath>
  </defs>
  <g id="Group_111" data-name="Group 111" clip-path="url(#clip-path)">
    <path id="Path_67" data-name="Path 67" d="M20.114,0H6.4A2.288,2.288,0,0,0,4.114,2.286V7.619L2.834,9.326A14.171,14.171,0,0,0,0,17.829V31.543a.457.457,0,1,0,.914,0V17.829A13.34,13.34,0,0,1,3.566,9.874l.549-.731v5.486H3.85a1.566,1.566,0,0,0-1.564,1.564v8.036a.457.457,0,0,0,.914,0V16.193a.651.651,0,0,1,.65-.65h.265a.646.646,0,0,1,.458.19l.109.109a4.372,4.372,0,0,1,.347.391,4.274,4.274,0,0,1,.914,2.654v3.054A1.554,1.554,0,0,0,6.4,23.047l1.337,1.337a6.308,6.308,0,0,1,1.84,3.968,3.593,3.593,0,0,1,.022.39v2.8h0a.457.457,0,1,0,.914,0V30.171h9.6A2.288,2.288,0,0,0,22.4,27.886V2.286A2.288,2.288,0,0,0,20.114,0m1.371,27.886a1.373,1.373,0,0,1-1.371,1.371h-9.6v-.378a7.223,7.223,0,0,0-2.129-5.141L7.047,22.4a.646.646,0,0,1-.19-.459V18.888A5.187,5.187,0,0,0,5.328,15.2l-.109-.109a1.581,1.581,0,0,0-.19-.162V2.286A1.373,1.373,0,0,1,6.4.914H20.114a1.373,1.373,0,0,1,1.371,1.371Z" transform="translate(0)" fill="#005eac"/>
    <path id="Path_68" data-name="Path 68" d="M171.715,200.949a.457.457,0,0,0-.529-.038,4.3,4.3,0,0,1-4.91-.762.457.457,0,0,0-.338-.149h-.006a.456.456,0,0,0-.223.061h0a.454.454,0,0,0-.048.032h0a.457.457,0,0,0-.05.045,4.3,4.3,0,0,1-4.917.77.457.457,0,0,0-.7.39,13.167,13.167,0,0,0,.889,4.876,11.593,11.593,0,0,0,1.963,3.262,10.165,10.165,0,0,0,2.887,2.4.457.457,0,0,0,.406,0,10.164,10.164,0,0,0,2.887-2.4,11.593,11.593,0,0,0,1.963-3.262,13.16,13.16,0,0,0,.89-4.855.457.457,0,0,0-.165-.374m-1.564,4.866a10.686,10.686,0,0,1-1.792,3,9.968,9.968,0,0,1-2.422,2.091,9.969,9.969,0,0,1-2.422-2.091,10.686,10.686,0,0,1-1.792-3,12,12,0,0,1-.8-3.786,4.745,4.745,0,0,0,1.577.258,5.438,5.438,0,0,0,3.433-1.206,5.379,5.379,0,0,0,5.01.948,12,12,0,0,1-.8,3.786" transform="translate(-152.681 -190.857)" fill="#005eac"/>
  </g>
</svg>
